<svg width="600" height="400" viewBox="0 0 600 400" xmlns="http://www.w3.org/2000/svg">
  <defs>
    <!-- Gradient Definitions -->
    <linearGradient id="mainGradient" x1="0%" y1="0%" x2="100%" y2="100%">
      <stop offset="0%" stop-color="#1a5276" />
      <stop offset="100%" stop-color="#27ae60" />
    </linearGradient>
    
    <linearGradient id="accentGradient" x1="0%" y1="0%" x2="100%" y2="0%">
      <stop offset="0%" stop-color="#2ecc71" />
      <stop offset="100%" stop-color="#3498db" />
    </linearGradient>
    
    <radialGradient id="bgGradient" cx="50%" cy="50%" r="50%" fx="50%" fy="50%">
      <stop offset="0%" stop-color="#f8f9fa" />
      <stop offset="100%" stop-color="#e9f5f9" />
    </radialGradient>
    
    <!-- Icons -->
    <g id="scholarship">
      <path d="M20,40 L80,40 L70,20 L30,20 Z" fill="url(#accentGradient)" />
      <path d="M30,20 L70,20 L65,15 L35,15 Z" fill="url(#mainGradient)" opacity="0.3" />
      <path d="M40,40 L40,60 M60,40 L60,60" stroke="url(#mainGradient)" stroke-width="2" />
    </g>
    
    <g id="university">
      <rect x="10" y="30" width="20" height="30" fill="url(#mainGradient)" />
      <rect x="40" y="20" width="20" height="40" fill="url(#accentGradient)" />
      <rect x="70" y="25" width="20" height="35" fill="url(#mainGradient)" />
      <rect x="0" y="60" width="100" height="10" fill="#333" opacity="0.2" />
    </g>
    
    <g id="compass">
      <circle cx="50" cy="50" r="25" fill="none" stroke="url(#accentGradient)" stroke-width="3" />
      <path d="M50,25 L50,35 M50,65 L50,75 M25,50 L35,50 M65,50 L75,50" stroke="url(#mainGradient)" stroke-width="2" />
      <path d="M30,30 L70,70 M30,70 L70,30" stroke="url(#accentGradient)" stroke-width="1.5" stroke-dasharray="3,2" />
    </g>
    
    <g id="document">
      <rect x="20" y="10" width="60" height="80" rx="3" fill="white" stroke="url(#mainGradient)" stroke-width="2" />
      <line x1="25" y1="25" x2="55" y2="25" stroke="url(#accentGradient)" stroke-width="2" />
      <line x1="25" y1="35" x2="75" y2="35" stroke="#333" stroke-width="1" />
      <line x1="25" y1="45" x2="65" y2="45" stroke="#333" stroke-width="1" />
      <line x1="25" y1="55" x2="60" y2="55" stroke="#333" stroke-width="1" />
      <path d="M30,65 L50,65" stroke="url(#accentGradient)" stroke-width="2" stroke-linecap="round" />
    </g>
    
    <!-- Blob shapes for background -->
    <filter id="blobFilter" x="-20%" y="-20%" width="140%" height="140%">
      <feGaussianBlur in="SourceGraphic" stdDeviation="10" result="blur" />
      <feColorMatrix in="blur" mode="matrix" values="1 0 0 0 0  0 1 0 0 0  0 0 1 0 0  0 0 0 18 -7" result="goo" />
    </filter>
  </defs>
  
  <!-- Background -->
  <rect width="600" height="400" fill="url(#bgGradient)" />
  
  <!-- Decorative blobs -->
  <g filter="url(#blobFilter)" opacity="0.6">
    <path d="M100,100 Q130,80 160,100 T220,100 Q250,120 220,150 T180,180 Q150,200 120,180 T80,150 Q60,120 100,100Z" fill="#3498db" />
    <path d="M400,200 Q430,180 460,200 T520,200 Q550,220 520,250 T480,280 Q450,300 420,280 T380,250 Q360,220 400,200Z" fill="#2ecc71" />
    <path d="M500,100 Q530,80 560,100 T620,100 Q650,120 620,150 T580,180 Q550,200 520,180 T480,150 Q460,120 500,100Z" fill="#1a5276" />
  </g>
  
  <!-- Main content container -->
  <rect x="50" y="50" width="500" height="300" rx="15" fill="white" fill-opacity="0.8" stroke="white" stroke-width="2" />
  
  <!-- Icons illustration -->
  <use href="#scholarship" x="80" y="150" />
  <use href="#university" x="200" y="140" />
  <use href="#compass" x="320" y="140" />
  <use href="#document" x="440" y="140" />
  
  <!-- Main title -->
  <text x="300" y="100" font-family="'Montserrat', sans-serif" font-size="36" font-weight="700" 
        fill="url(#mainGradient)" text-anchor="middle" letter-spacing="1">
    Apply Buddies
  </text>
  
  <!-- Tagline -->
  <text x="300" y="130" font-family="'Montserrat', sans-serif" font-size="16" font-weight="300" 
        fill="#555" text-anchor="middle">
    Your complete guide to global education
  </text>
  
  <!-- Feature labels -->
  <text x="130" y="250" font-family="'Montserrat', sans-serif" font-size="14" font-weight="600" 
        fill="url(#mainGradient)" text-anchor="middle">
    Scholarships
  </text>
  
  <text x="250" y="250" font-family="'Montserrat', sans-serif" font-size="14" font-weight="600" 
        fill="url(#mainGradient)" text-anchor="middle">
    Universities
  </text>
  
  <text x="370" y="250" font-family="'Montserrat', sans-serif" font-size="14" font-weight="600" 
        fill="url(#mainGradient)" text-anchor="middle">
    Guidance
  </text>
  
  <text x="490" y="250" font-family="'Montserrat', sans-serif" font-size="14" font-weight="600" 
        fill="url(#mainGradient)" text-anchor="middle">
    Applications
  </text>
  
  <!-- Decorative elements -->
  <circle cx="550" cy="80" r="8" fill="url(#accentGradient)" opacity="0.6" />
  <circle cx="570" cy="70" r="5" fill="url(#accentGradient)" opacity="0.4" />
  
  <!-- Call to action -->
  <rect x="200" y="280" width="200" height="40" rx="20" fill="url(#accentGradient)" />
  <text x="300" y="305" font-family="'Montserrat', sans-serif" font-size="14" font-weight="600" 
        fill="white" text-anchor="middle">
    Start Your Journey
  </text>
</svg>