<svg width="600" height="400" viewBox="0 0 600 400" xmlns="http://www.w3.org/2000/svg">
  <defs>
    <!-- Modern color palette -->
    <linearGradient id="carGradient" x1="0%" y1="0%" x2="100%" y2="0%">
      <stop offset="0%" stop-color="#f2cc42" />
      <stop offset="100%" stop-color="#f2cc42" />
    </linearGradient>
    
    <!-- Car shadow -->
    <filter id="carShadow" x="-10%" y="-10%" width="120%" height="120%">
      <feGaussianBlur in="SourceAlpha" stdDeviation="4" result="blur"/>
      <feOffset in="blur" dx="2" dy="4" result="offsetBlur"/>
      <feMerge>
        <feMergeNode in="offsetBlur"/>
        <feMergeNode in="SourceGraphic"/>
      </feMerge>
    </filter>
  </defs>

  <!-- Clean background -->
  <rect width="600" height="400" fill="#f8fafc" /> <!-- Cool gray-50 -->
  
  <!-- Main container -->
  <rect x="50" y="30" width="500" height="340" rx="12" fill="white" stroke="#e2e8f0" stroke-width="1" />
  
  <!-- Simplified modern car illustration -->
  <g transform="translate(300 200)" filter="url(#carShadow)">
    <!-- Car body -->
    <path d="M-120 40 L-80 0 H80 L120 40 V80 H-120 Z" fill="url(#carGradient)" />
    
    <!-- Windshield -->
    <path d="M-80 0 L-40 -20 H40 L80 0" fill="#e0f2fe" /> <!-- Light blue-50 -->
    
    <!-- Windows -->
    <rect x="-70" y="10" width="40" height="30" rx="2" fill="#1e3a8a" opacity="0.2" />
    <rect x="30" y="10" width="40" height="30" rx="2" fill="#1e3a8a" opacity="0.2" />
    
    <!-- Wheels -->
    <circle cx="-70" cy="80" r="20" fill="#1e293b" /> <!-- Gray-900 -->
    <circle cx="-70" cy="80" r="10" fill="#334155" /> <!-- Gray-700 -->
    <circle cx="70" cy="80" r="20" fill="#1e293b" />
    <circle cx="70" cy="80" r="10" fill="#334155" />
    
    <!-- Headlights -->
    <circle cx="120" cy="30" r="8" fill="#fef3c7" /> <!-- Amber-50 -->
  </g>
  
  <!-- Minimalist text -->
  <text x="300" y="100" font-family="'Inter', sans-serif" font-size="42" font-weight="700" 
        fill="#1e293b" text-anchor="middle" letter-spacing="-0.5">
    Limo4All
  </text>
  
  <text x="300" y="130" font-family="'Inter', sans-serif" font-size="16" font-weight="400" 
        fill="#64748b" text-anchor="middle">
    Reserve your perfect ride in seconds
  </text>
  
  <!-- Simple CTA button -->
  <g transform="translate(300 330)" cursor="pointer">
    <rect x="-100" y="-20" width="200" height="45" rx="8" fill="#f2cc42" />
    <text x="0" y="5" font-family="'Inter', sans-serif" font-size="16" font-weight="600" 
          fill="white" text-anchor="middle">
      Book Now
    </text>
  </g>
  
  <!-- Decorative elements -->
  <line x1="150" y1="150" x2="450" y2="150" stroke="#e2e8f0" stroke-width="2" stroke-dasharray="4 4" />
  <circle cx="300" cy="150" r="6" fill="#f2cc42" />
</svg>