<svg xmlns="http://www.w3.org/2000/svg" viewBox="0 0 200 200">
  <defs>
    <linearGradient id="grad" x1="0%" y1="0%" x2="100%" y2="100%">
      <stop offset="0%" stop-color="#f36921" stop-opacity="0.9"/>
      <stop offset="100%" stop-color="#e5530d" stop-opacity="0.9"/>
    </linearGradient>
    <filter id="glow" x="-20%" y="-20%" width="200%" height="200%">
      <feGaussianBlur stdDeviation="3" result="blur"/>
      <feComposite in="SourceGraphic" in2="blur" operator="over"/>
    </filter>
  </defs>

  <!-- Abstract Torus Knot -->
  <path d="M100,40 C120,40 140,60 140,80 C140,100 120,120 100,120 C80,120 60,100 60,80 C60,60 80,40 100,40 Z 
           M100,60 C115,60 125,70 125,80 C125,90 115,100 100,100 C85,100 75,90 75,80 C75,70 85,60 100,60 Z" 
        fill="none" stroke="url(#grad)" stroke-width="6" stroke-linecap="round" 
        stroke-linejoin="round" filter="url(#glow)"/>

  <!-- Accent Flow -->
  <path d="M100,40 L100,20 M100,120 L100,140 M60,80 L40,80 M140,80 L160,80" 
        fill="none" stroke="#f36921" stroke-width="2" stroke-dasharray="3 2"/>
</svg>